<svg id="visual" viewBox="0 0 900 600" width="900" height="600" xmlns="http://www.w3.org/2000/svg" xmlns:xlink="http://www.w3.org/1999/xlink" version="1.1"><rect x="0" y="0" width="900" height="600" fill="#12C2E9"></rect><path d="M0 413L129 413L129 399L257 399L257 465L386 465L386 410L514 410L514 462L643 462L643 415L771 415L771 455L900 455L900 445L900 601L900 601L771 601L771 601L643 601L643 601L514 601L514 601L386 601L386 601L257 601L257 601L129 601L129 601L0 601Z" fill="#F64F59" stroke-linecap="square" stroke-linejoin="miter"></path></svg>