<svg id="visual" viewBox="0 0 900 600" width="900" height="600" xmlns="http://www.w3.org/2000/svg" xmlns:xlink="http://www.w3.org/1999/xlink" version="1.1"><rect x="0" y="0" width="900" height="600" fill="#000000"></rect><path d="M0 60L15 58.7C30 57.3 60 54.7 90 55.3C120 56 150 60 180 64.2C210 68.3 240 72.7 270 70C300 67.3 330 57.7 360 55.3C390 53 420 58 450 62.7C480 67.3 510 71.7 540 73.8C570 76 600 76 630 70.8C660 65.7 690 55.3 720 53.3C750 51.3 780 57.7 810 61.3C840 65 870 66 885 66.5L900 67L900 0L885 0C870 0 840 0 810 0C780 0 750 0 720 0C690 0 660 0 630 0C600 0 570 0 540 0C510 0 480 0 450 0C420 0 390 0 360 0C330 0 300 0 270 0C240 0 210 0 180 0C150 0 120 0 90 0C60 0 30 0 15 0L0 0Z" fill="#F64F59" stroke-linecap="round" stroke-linejoin="miter"></path></svg>