<svg id="visual" viewBox="0 0 900 600" width="900" height="600" xmlns="http://www.w3.org/2000/svg" xmlns:xlink="http://www.w3.org/1999/xlink" version="1.1"><rect x="0" y="0" width="900" height="600" fill="#000000"></rect><path d="M0 30L11.5 29.2C23 28.3 46 26.7 69 27.2C92 27.7 115 30.3 138.2 31.7C161.3 33 184.7 33 207.8 32.5C231 32 254 31 277 29.5C300 28 323 26 346 25.2C369 24.3 392 24.7 415.2 25.2C438.3 25.7 461.7 26.3 484.8 28.2C508 30 531 33 554 34.3C577 35.7 600 35.3 623 33.5C646 31.7 669 28.3 692.2 27.3C715.3 26.3 738.7 27.7 761.8 29.3C785 31 808 33 831 32.2C854 31.3 877 27.7 888.5 25.8L900 24L900 0L888.5 0C877 0 854 0 831 0C808 0 785 0 761.8 0C738.7 0 715.3 0 692.2 0C669 0 646 0 623 0C600 0 577 0 554 0C531 0 508 0 484.8 0C461.7 0 438.3 0 415.2 0C392 0 369 0 346 0C323 0 300 0 277 0C254 0 231 0 207.8 0C184.7 0 161.3 0 138.2 0C115 0 92 0 69 0C46 0 23 0 11.5 0L0 0Z" fill="#F64F59" stroke-linecap="round" stroke-linejoin="miter"></path></svg>