<svg id="visual" viewBox="0 0 900 600" width="900" height="600" xmlns="http://www.w3.org/2000/svg" xmlns:xlink="http://www.w3.org/1999/xlink" version="1.1"><rect x="0" y="0" width="900" height="600" fill="#12C2E9"></rect><path d="M0 541L90 541L90 539L180 539L180 532L270 532L270 548L360 548L360 545L450 545L450 551L540 551L540 534L630 534L630 521L720 521L720 557L810 557L810 554L900 554L900 547L900 601L900 601L810 601L810 601L720 601L720 601L630 601L630 601L540 601L540 601L450 601L450 601L360 601L360 601L270 601L270 601L180 601L180 601L90 601L90 601L0 601Z" fill="#0e0c0d" stroke-linecap="square" stroke-linejoin="miter"></path></svg>