<svg id="visual" viewBox="0 0 900 600" width="900" height="600" xmlns="http://www.w3.org/2000/svg" xmlns:xlink="http://www.w3.org/1999/xlink" version="1.1"><rect x="0" y="0" width="900" height="600" fill="#12C2E9"></rect><path d="M0 570L90 570L90 569L180 569L180 566L270 566L270 574L360 574L360 572L450 572L450 575L540 575L540 567L630 567L630 560L720 560L720 578L810 578L810 576L900 576L900 573L900 601L900 601L810 601L810 601L720 601L720 601L630 601L630 601L540 601L540 601L450 601L450 601L360 601L360 601L270 601L270 601L180 601L180 601L90 601L90 601L0 601Z" fill="#0e0c0d" stroke-linecap="square" stroke-linejoin="miter"></path></svg>