<svg id="visual" viewBox="0 0 900 600" width="900" height="600" xmlns="http://www.w3.org/2000/svg" xmlns:xlink="http://www.w3.org/1999/xlink" version="1.1"><rect x="0" y="0" width="900" height="600" fill="#000000"></rect><path d="M0 568L11.5 568.8C23 569.7 46 571.3 69 570.8C92 570.3 115 567.7 138.2 566.3C161.3 565 184.7 565 207.8 565.5C231 566 254 567 277 568.5C300 570 323 572 346 572.8C369 573.7 392 573.3 415.2 572.8C438.3 572.3 461.7 571.7 484.8 569.8C508 568 531 565 554 563.7C577 562.3 600 562.7 623 564.5C646 566.3 669 569.7 692.2 570.7C715.3 571.7 738.7 570.3 761.8 568.7C785 567 808 565 831 565.8C854 566.7 877 570.3 888.5 572.2L900 574L900 601L888.5 601C877 601 854 601 831 601C808 601 785 601 761.8 601C738.7 601 715.3 601 692.2 601C669 601 646 601 623 601C600 601 577 601 554 601C531 601 508 601 484.8 601C461.7 601 438.3 601 415.2 601C392 601 369 601 346 601C323 601 300 601 277 601C254 601 231 601 207.8 601C184.7 601 161.3 601 138.2 601C115 601 92 601 69 601C46 601 23 601 11.5 601L0 601Z" fill="#F64F59" stroke-linecap="round" stroke-linejoin="miter"></path></svg>