<svg id="visual" viewBox="0 0 900 600" width="900" height="600" xmlns="http://www.w3.org/2000/svg" xmlns:xlink="http://www.w3.org/1999/xlink" version="1.1"><rect x="0" y="0" width="900" height="600" fill="#12C2E9"></rect><path d="M0 454L90 454L90 450L180 450L180 432L270 432L270 472L360 472L360 464L450 464L450 478L540 478L540 437L630 437L630 404L720 404L720 493L810 493L810 486L900 486L900 468L900 601L900 601L810 601L810 601L720 601L720 601L630 601L630 601L540 601L540 601L450 601L450 601L360 601L360 601L270 601L270 601L180 601L180 601L90 601L90 601L0 601Z" fill="#0e0c0d" stroke-linecap="square" stroke-linejoin="miter"></path></svg>